<svg width="267" height="279" viewBox="0 0 267 279" fill="none" xmlns="http://www.w3.org/2000/svg">
<rect x="0.5" y="0.5" width="266" height="278" rx="15.5" fill="#F4711A" stroke="white"/>
<rect width="200" height="200" transform="translate(34 40)" fill="#F4711A"/>
<path d="M81.5791 217.084C95.1837 217.084 106.212 206.055 106.212 192.45C106.212 178.846 95.1837 167.817 81.5791 167.817C67.9745 167.817 56.9458 178.846 56.9458 192.45C56.9458 206.055 67.9745 217.084 81.5791 217.084Z" stroke="white" stroke-width="20" stroke-linecap="round" stroke-linejoin="round"/>
<path d="M189.471 83.9316C189.548 83.9115 189.629 83.9121 189.706 83.9326C189.783 83.9534 189.855 83.9939 189.912 84.0508C189.969 84.1077 190.009 84.1792 190.03 84.2568C190.051 84.3345 190.051 84.4165 190.03 84.4941C190.002 84.5964 189.978 84.6993 189.953 84.8018L164.184 180.965C164.15 181.094 164.115 181.19 164.087 181.26C163.999 181.281 163.881 181.302 163.743 181.302C163.602 181.302 163.483 181.282 163.395 181.26C163.367 181.19 163.332 181.092 163.297 180.961L153.133 143.05C151.751 137.893 149.078 133.176 145.371 129.342L145.009 128.973L144.641 128.61C140.808 124.899 136.089 122.223 130.93 120.839L130.925 120.837L93.0073 110.673H93.0083C92.8762 110.637 92.7781 110.602 92.7075 110.574C92.6856 110.486 92.6656 110.367 92.6655 110.228C92.6655 110.087 92.6856 109.968 92.7075 109.88C92.7763 109.853 92.8714 109.819 92.9985 109.784L189.471 83.9316Z" stroke="white" stroke-width="42" stroke-linecap="round" stroke-linejoin="round"/>
</svg>
